<svg width="1498" height="510" viewBox="0 0 1498 510" fill="none" xmlns="http://www.w3.org/2000/svg">
<ellipse cx="285.11" cy="250.971" rx="262.05" ry="250.971" fill="url(#paint0_linear)"/>
<mask id="mask0" mask-type="alpha" maskUnits="userSpaceOnUse" x="0" y="382" width="859" height="129">
<path fill-rule="evenodd" clip-rule="evenodd" d="M0 400.475L23.6225 409.602C47.9608 418.729 95.2058 436.984 143.167 436.984C191.127 436.984 238.372 418.729 286.333 403.518C334.294 388.306 381.539 376.136 429.5 385.264C477.461 394.391 524.706 424.814 572.667 449.153C620.628 473.492 667.872 491.746 715.833 488.704C763.794 485.661 811.039 461.322 835.377 449.153L859 436.984V510H835.377C811.039 510 763.794 510 715.833 510C667.872 510 620.628 510 572.667 510C524.706 510 477.461 510 429.5 510C381.539 510 334.294 510 286.333 510C238.372 510 191.127 510 143.167 510C95.2058 510 47.9608 510 23.6225 510H0V400.475Z" fill="white"/>
</mask>
<g mask="url(#mask0)">
<ellipse cx="285.11" cy="250.971" rx="262.05" ry="250.971" fill="url(#paint1_linear)"/>
</g>
<path d="M598.259 144.943C588.668 138.337 551.02 108.373 412.406 105.62C273.801 102.871 157.665 168.709 169.475 248.878C171.96 265.735 195.881 311.329 259.659 308.885C299.756 307.355 334.383 272.068 394.461 233.03C435.496 206.361 518.898 160.073 593.218 161.101C614.98 163.644 603.787 148.757 598.259 144.943Z" fill="white"/>
<path d="M731.632 329.432C744.88 329.432 758.032 325.016 771.088 316.184L782.608 332.024C776.272 337.592 768.4 342.008 758.992 345.272C749.584 348.536 740.464 350.168 731.632 350.168C709.168 350.168 691.6 343.16 678.928 329.144C666.448 314.936 660.208 295.832 660.208 271.832C660.208 256.664 662.992 243.032 668.56 230.936C674.32 218.84 682.576 209.336 693.328 202.424C704.08 195.512 716.848 192.056 731.632 192.056C751.216 192.056 768.112 198.008 782.32 209.912L770.512 225.752C757.264 216.92 744.208 212.504 731.344 212.504C717.712 212.504 706.768 217.592 698.512 227.768C690.448 237.752 686.416 252.44 686.416 271.832C686.416 291.224 690.448 305.72 698.512 315.32C706.768 324.728 717.808 329.432 731.632 329.432ZM893.376 192.056C914.304 192.056 930.336 199.16 941.472 213.368C952.8 227.384 958.464 246.584 958.464 270.968C958.464 294.776 952.704 313.976 941.184 328.568C929.856 342.968 913.824 350.168 893.088 350.168C872.16 350.168 856.032 343.16 844.703 329.144C833.376 314.936 827.712 295.64 827.712 271.256C827.712 247.256 833.376 228.056 844.703 213.656C856.224 199.256 872.448 192.056 893.376 192.056ZM893.376 211.928C880.128 211.928 870.24 216.824 863.712 226.616C857.184 236.408 853.92 251.288 853.92 271.256C853.92 291.224 857.088 306.104 863.424 315.896C869.952 325.496 879.84 330.296 893.088 330.296C906.336 330.296 916.128 325.496 922.464 315.896C928.992 306.104 932.256 291.128 932.256 270.968C932.256 251 928.992 236.216 922.464 226.616C916.128 216.824 906.432 211.928 893.376 211.928ZM1108.11 192.056C1116.75 192.056 1123.76 195.128 1129.14 201.272C1134.7 207.224 1137.49 218.168 1137.49 234.104V347H1115.31V238.136C1115.31 227.576 1114.64 220.472 1113.3 216.824C1111.95 212.984 1108.69 211.064 1103.5 211.064C1093.71 211.064 1084.88 217.112 1077.01 229.208V347H1054.54V238.136C1054.54 227.576 1053.87 220.472 1052.53 216.824C1051.18 212.984 1047.92 211.064 1042.74 211.064C1032.94 211.064 1024.11 217.112 1016.24 229.208V347H994.063V195.224H1012.78L1014.51 213.08C1019.12 206.36 1023.92 201.176 1028.91 197.528C1034.1 193.88 1040.24 192.056 1047.34 192.056C1061.55 192.056 1070.67 198.776 1074.7 212.216C1079.31 205.688 1084.21 200.696 1089.39 197.24C1094.58 193.784 1100.82 192.056 1108.11 192.056ZM1200.16 279.608C1200.73 296.312 1205.05 308.888 1213.12 317.336C1221.37 325.784 1231.74 330.008 1244.22 330.008C1251.71 330.008 1258.53 328.952 1264.67 326.84C1271.01 324.536 1277.73 321.08 1284.83 316.472L1296.06 332.6C1288.96 338.168 1280.8 342.488 1271.58 345.56C1262.56 348.632 1253.44 350.168 1244.22 350.168C1222.33 350.168 1205.25 343.064 1192.96 328.856C1180.86 314.456 1174.81 295.256 1174.81 271.256C1174.81 256.088 1177.5 242.552 1182.88 230.648C1188.25 218.552 1195.93 209.144 1205.92 202.424C1215.9 195.512 1227.52 192.056 1240.77 192.056C1259.97 192.056 1275.04 198.776 1285.98 212.216C1297.12 225.464 1302.69 243.608 1302.69 266.648C1302.69 271.064 1302.49 275.384 1302.11 279.608H1200.16ZM1241.05 211.928C1229.34 211.928 1219.84 216.152 1212.54 224.6C1205.25 232.856 1201.12 245.048 1200.16 261.176H1279.07C1278.88 245.24 1275.42 233.048 1268.7 224.6C1261.98 216.152 1252.77 211.928 1241.05 211.928ZM1474.22 339.224C1469.04 342.68 1462.7 345.368 1455.21 347.288C1447.92 349.208 1440.62 350.168 1433.33 350.168C1417.39 350.168 1404.91 346.04 1395.89 337.784C1386.86 329.336 1382.35 318.296 1382.35 304.664V214.232H1347.5V195.224H1382.35V160.952L1406.54 158.072V195.224H1459.25L1456.08 214.232H1406.54V304.376C1406.54 313.016 1408.85 319.448 1413.45 323.672C1418.06 327.896 1425.45 330.008 1435.63 330.008C1446 330.008 1455.69 327.608 1464.72 322.808L1474.22 339.224Z" fill="#E44C4C"/>
<defs>
<linearGradient id="paint0_linear" x1="82.8078" y1="56.9703" x2="403.435" y2="432.134" gradientUnits="userSpaceOnUse">
<stop stop-color="#F207B0"/>
<stop offset="1" stop-color="#E44C4C" stop-opacity="0.93"/>
</linearGradient>
<linearGradient id="paint1_linear" x1="82.8078" y1="56.9703" x2="403.435" y2="432.134" gradientUnits="userSpaceOnUse">
<stop stop-color="white"/>
<stop offset="1" stop-color="white" stop-opacity="0.93"/>
</linearGradient>
</defs>
</svg>
